<?xml version="1.0" standalone="no"?><!DOCTYPE svg PUBLIC "-//W3C//DTD SVG 1.1//EN" "http://www.w3.org/Graphics/SVG/1.1/DTD/svg11.dtd"><svg t="1670482914665" class="icon" viewBox="0 0 1024 1024" version="1.1" xmlns="http://www.w3.org/2000/svg" p-id="21825" xmlns:xlink="http://www.w3.org/1999/xlink" width="500" height="500"><path d="M155.34 756.714h719.034v146.542H155.34z" fill="#F5F7FA" p-id="21826"></path><path d="M384.1 874.404h-170.554c-11.772 0-21.294-9.554-21.294-21.326 0-11.774 9.524-21.328 21.294-21.328h170.554c11.772 0 21.294 9.554 21.294 21.328 0 11.772-9.522 21.326-21.294 21.326z" fill="#CCD1D9" p-id="21827"></path><path d="M213.544 810.456h660.828c11.772 0 21.328-9.556 21.328-21.328v-767.4c0-11.772-9.556-21.326-21.328-21.326H213.544c-47.088 0-85.246 38.188-85.246 85.278v767.402c0 47.088 38.158 85.276 85.246 85.276h660.828c11.772 0 21.328-9.554 21.328-21.326s-9.556-21.326-21.328-21.326H213.544c-23.482 0-42.624-19.112-42.624-42.624 0.002-23.518 19.142-42.626 42.624-42.626z" fill="#1296db" p-id="21828" data-spm-anchor-id="a313x.7781069.0.i28" class="selected"></path><path d="M213.544 810.456H256.2V0.4h-42.654C166.458 0.4 128.3 38.588 128.3 85.678V853.08c0 47.088 38.158 85.276 85.246 85.276H256.2v-42.652h-42.654c-23.482 0-42.624-19.112-42.624-42.624 0-23.516 19.14-42.624 42.622-42.624z" fill="#1296db" p-id="21829" data-spm-anchor-id="a313x.7781069.0.i29" class="selected"></path><path d="M384.1 1023.6l-85.278-42.624-85.278 42.624v-170.522h170.556z" fill="#ED5564" p-id="21830"></path><path d="M554.624 241.242l52.706 106.762 117.816 17.142-85.246 83.092 20.11 117.378-105.386-55.426-105.388 55.426 20.11-117.378-85.246-83.092 117.814-17.142z" fill="#FFCE54" p-id="21831"></path><path d="M874.374 853.078c-11.774 0-21.328 9.554-21.328 21.326s9.554 21.296 21.328 21.296v-42.622zM874.374 810.456c-11.774 0-21.328 9.524-21.328 21.294s9.554 21.328 21.328 21.328v-42.622z" fill="#CCD1D9" p-id="21832"></path></svg>